# Blender v2.76 (sub 0) OBJ File: ''
# www.blender.org
mtllib test.mtl
o Grid_Grid.003
v -100.000000 0.000000 100.000000
v -77.777779 0.000000 100.000000
v -55.555557 0.000000 100.000000
v -33.333332 0.000000 100.000000
v -11.111111 0.000000 100.000000
v 11.111116 0.000000 100.000000
v 33.333336 0.000000 100.000000
v 55.555557 0.000000 100.000000
v 77.777779 53.074753 100.000000
v 100.000000 53.074753 100.000000
v -100.000000 0.000000 77.777779
v -77.777779 0.000000 77.777779
v -55.555557 0.000000 77.777779
v -33.333332 0.000000 77.777779
v -11.111111 0.000000 77.777779
v 11.111116 0.000000 77.777779
v 33.333336 0.000000 77.777779
v 55.555557 0.000000 77.777779
v 77.777779 53.074753 77.777779
v 100.000000 53.074753 77.777779
v -100.000000 0.000000 55.555557
v -77.777779 0.000000 55.555557
v -55.555557 12.685080 55.555557
v -33.333332 0.000000 55.555557
v -11.111111 0.000000 55.555557
v 11.111116 0.000000 55.555557
v 33.333336 0.000000 55.555557
v 55.555557 0.000000 55.555557
v 77.777779 0.000000 55.555557
v 100.000000 0.000000 55.555557
v -100.000000 0.000000 33.333332
v -77.777779 0.000000 33.333332
v -55.555557 0.000000 33.333332
v -33.333332 0.000000 33.333332
v -11.111111 0.000000 33.333332
v 11.111116 0.000000 33.333332
v 33.333336 0.000000 33.333332
v 55.555557 0.000000 33.333332
v 77.777779 0.000000 33.333332
v 100.000000 0.000000 33.333332
v -100.000000 0.000000 11.111111
v -77.777779 0.000000 11.111111
v -55.555557 0.000000 11.111111
v -33.333332 0.000000 11.111111
v -11.111111 0.000000 11.111111
v 11.111116 0.000000 11.111111
v 33.333336 0.000000 11.111111
v 55.555557 0.000000 11.111111
v 77.777779 0.000000 11.111111
v 100.000000 0.000000 11.111111
v -100.000000 0.000000 -11.111116
v -77.777779 0.000000 -11.111116
v -55.555557 10.432956 -11.111116
v -33.333332 10.432956 -11.111116
v -11.111111 0.000000 -11.111116
v 11.111116 0.000000 -11.111116
v 33.333336 0.000000 -11.111116
v 55.555557 0.000000 -11.111116
v 77.777779 0.000000 -11.111116
v 100.000000 0.000000 -11.111116
v -100.000000 0.000000 -33.333336
v -77.777779 0.000000 -33.333336
v -55.555557 10.432956 -33.333336
v -33.333332 10.432956 -33.333336
v -11.111111 0.000000 -33.333336
v 11.111116 0.000000 -33.333336
v 33.333336 0.000000 -33.333336
v 55.555557 19.787046 -33.333336
v 77.777779 19.082760 -33.333336
v 100.000000 0.000000 -33.333336
v -100.000000 0.000000 -55.555557
v -77.777779 0.000000 -55.555557
v -55.555557 0.000000 -55.555557
v -33.333332 0.000000 -55.555557
v -11.111111 0.000000 -55.555557
v 11.111116 0.000000 -55.555557
v 33.333336 18.018917 -55.555557
v 55.555557 19.082760 -55.555557
v 77.777779 19.082760 -55.555557
v 100.000000 0.000000 -55.555557
v -100.000000 0.000000 -77.777779
v -77.777779 0.000000 -77.777779
v -55.555557 0.000000 -77.777779
v -33.333332 0.000000 -77.777779
v -11.111111 0.000000 -77.777779
v 11.111116 0.000000 -77.777779
v 33.333336 0.000000 -77.777779
v 55.555557 0.000000 -77.777779
v 77.777779 0.000000 -77.777779
v 100.000000 0.000000 -77.777779
v -100.000000 0.000000 -100.000000
v -77.777779 0.000000 -100.000000
v -55.555557 0.000000 -100.000000
v -33.333332 0.000000 -100.000000
v -11.111111 0.000000 -100.000000
v 11.111116 0.000000 -100.000000
v 33.333336 0.000000 -100.000000
v 55.555557 0.000000 -100.000000
v 77.777779 0.000000 -100.000000
v 100.000000 0.000000 -100.000000
vn 0.000000 1.000000 0.000000
vn -0.922400 0.386200 0.000000
vn -0.264700 0.927300 0.264700
vn 0.264700 0.927300 0.264700
vn -0.608400 0.509500 -0.608400
vn 0.000000 0.386200 -0.922400
vn -0.264700 0.927300 -0.264700
vn 0.264700 0.927300 -0.264700
vn -0.222800 0.949100 0.222800
vn 0.000000 0.905200 0.425000
vn 0.222800 0.949100 0.222800
vn -0.425000 0.905200 0.000000
vn 0.425000 0.905200 0.000000
vn -0.376800 0.846200 0.376800
vn 0.011900 0.752700 0.658300
vn 0.367000 0.854800 0.367000
vn -0.222800 0.949100 -0.222800
vn 0.000000 0.905200 -0.425000
vn 0.222800 0.949100 -0.222800
vn -0.351700 0.867500 0.351700
vn -0.400500 0.853800 0.332600
vn 0.015800 0.999700 -0.015800
vn 0.651500 0.758700 0.000000
vn -0.351700 0.867500 -0.351700
vn -0.018400 0.767500 -0.640700
vn 0.000000 0.758700 -0.651500
vn 0.367000 0.854800 -0.367000
g Grid_Grid.003_None
usemtl None
s off
f 1//1 2//1 12//1 11//1
f 2//1 3//1 13//1 12//1
f 3//1 4//1 14//1 13//1
f 4//1 5//1 15//1 14//1
f 5//1 6//1 16//1 15//1
f 6//1 7//1 17//1 16//1
f 7//1 8//1 18//1 17//1
f 8//2 9//2 19//2 18//2
f 9//1 10//1 20//1 19//1
f 11//1 12//1 22//1 21//1
f 12//3 13//3 23//3 22//3
f 13//4 14//4 24//4 23//4
f 14//1 15//1 25//1 24//1
f 15//1 16//1 26//1 25//1
f 16//1 17//1 27//1 26//1
f 17//1 18//1 28//1 27//1
f 18//5 19//5 29//5 28//5
f 19//6 20//6 30//6 29//6
f 21//1 22//1 32//1 31//1
f 22//7 23//7 33//7 32//7
f 23//8 24//8 34//8 33//8
f 24//1 25//1 35//1 34//1
f 25//1 26//1 36//1 35//1
f 26//1 27//1 37//1 36//1
f 27//1 28//1 38//1 37//1
f 28//1 29//1 39//1 38//1
f 29//1 30//1 40//1 39//1
f 31//1 32//1 42//1 41//1
f 32//1 33//1 43//1 42//1
f 33//1 34//1 44//1 43//1
f 34//1 35//1 45//1 44//1
f 35//1 36//1 46//1 45//1
f 36//1 37//1 47//1 46//1
f 37//1 38//1 48//1 47//1
f 38//1 39//1 49//1 48//1
f 39//1 40//1 50//1 49//1
f 41//1 42//1 52//1 51//1
f 42//9 43//9 53//9 52//9
f 43//10 44//10 54//10 53//10
f 44//11 45//11 55//11 54//11
f 45//1 46//1 56//1 55//1
f 46//1 47//1 57//1 56//1
f 47//1 48//1 58//1 57//1
f 48//1 49//1 59//1 58//1
f 49//1 50//1 60//1 59//1
f 51//1 52//1 62//1 61//1
f 52//12 53//12 63//12 62//12
f 53//1 54//1 64//1 63//1
f 54//13 55//13 65//13 64//13
f 55//1 56//1 66//1 65//1
f 56//1 57//1 67//1 66//1
f 57//14 58//14 68//14 67//14
f 58//15 59//15 69//15 68//15
f 59//16 60//16 70//16 69//16
f 61//1 62//1 72//1 71//1
f 62//17 63//17 73//17 72//17
f 63//18 64//18 74//18 73//18
f 64//19 65//19 75//19 74//19
f 65//1 66//1 76//1 75//1
f 66//20 67//20 77//20 76//20
f 67//21 68//21 78//21 77//21
f 68//22 69//22 79//22 78//22
f 69//23 70//23 80//23 79//23
f 71//1 72//1 82//1 81//1
f 72//1 73//1 83//1 82//1
f 73//1 74//1 84//1 83//1
f 74//1 75//1 85//1 84//1
f 75//1 76//1 86//1 85//1
f 76//24 77//24 87//24 86//24
f 77//25 78//25 88//25 87//25
f 78//26 79//26 89//26 88//26
f 79//27 80//27 90//27 89//27
f 81//1 82//1 92//1 91//1
f 82//1 83//1 93//1 92//1
f 83//1 84//1 94//1 93//1
f 84//1 85//1 95//1 94//1
f 85//1 86//1 96//1 95//1
f 86//1 87//1 97//1 96//1
f 87//1 88//1 98//1 97//1
f 88//1 89//1 99//1 98//1
f 89//1 90//1 100//1 99//1
